#!OML:ASF G:\JayActor3\Patient Classification 1\Patient 1\Session 2\male.ASF
:FULLY-SPECIFIED
:DEGREES
1487
root 43.6694 16.4676 -6.18851 -738.105 -77.7184 -341.058
lowerback -0.558202 1.11842 -2.30972
upperback 4.95953 1.49076 0.380438
thorax 5.37293 0.598258 1.76141
lowerneck -9.64044 4.24598 3.79868
upperneck 4.64994 4.63362 6.34198
head 3.14561 2.59089 1.6808
rclavicle -3.30976e-014 1.19271e-014
rhumerus -18.779 28.8101 -92.3686
rradius 71.6663
rwrist -52.3862
rhand 1.29008 -361.188
rfingers 7.12502
rthumb 26.8255 330.695
lclavicle -3.30976e-014 1.19271e-014
lhumerus -22.7321 -23.3867 96.0936
lradius 74.9426
lwrist 62.5043
lhand 6.16219 26.231
lfingers 7.12502
lthumb 31.4779 53.5403
rfemur -11.9714 14.9297 3.5989
rtibia 34.9799
rfoot -26.2798 -11.9572
rtoes 11.4492
lfemur -6.46455 7.99194 -26.5254
ltibia 25.9117
lfoot -15.6732 -4.74234
ltoes -3.88543
1488
root 43.6767 16.4668 -6.17428 -738.032 -77.6892 -341.121
lowerback -0.564454 1.11573 -2.31583
upperback 4.95985 1.48794 0.37258
thorax 5.37705 0.596734 1.7567
lowerneck -9.60765 4.23473 3.79183
upperneck 4.60884 4.62235 6.36393
head 3.12461 2.58407 1.68633
rclavicle 8.74653e-015 -1.59028e-014
rhumerus -18.8156 28.7689 -92.3764
rradius 71.6774
rwrist -52.3099
rhand 1.22929 -361.153
rfingers 7.12502
rthumb 26.7673 330.721
lclavicle 8.74653e-015 -1.59028e-014
lhumerus -22.7189 -23.435 96.0847
lradius 74.931
lwrist 62.4489
lhand 6.09548 26.2119
lfingers 7.12502
lthumb 31.4143 53.5336
rfemur -11.9691 14.9177 3.55154
rtibia 34.9475
rfoot -26.2843 -12.0222
rtoes 11.4238
lfemur -6.5172 8.01333 -26.581
ltibia 25.9449
lfoot -15.6753 -4.78527
ltoes -3.8566
1489
root 43.6839 16.4659 -6.16068 -737.97 -77.6626 -341.172
lowerback -0.573901 1.11501 -2.32533
upperback 4.96472 1.48795 0.363708
thorax 5.38761 0.596304 1.7531
lowerneck -9.58452 4.22084 3.78696
upperneck 4.56709 4.60629 6.38985
head 3.10531 2.57513 1.69289
rclavicle -4.6118e-014 -9.54166e-015
rhumerus -18.8454 28.7258 -92.3789
rradius 71.6927
rwrist -52.2594
rhand 1.16421 -361.12
rfingers 7.12502
rthumb 26.705 330.745
lclavicle -4.6118e-014 -9.54166e-015
lhumerus -22.6914 -23.4914 96.0706
lradius 74.9167
lwrist 62.3779
lhand 6.0465 26.2007
lfingers 7.12502
lthumb 31.3676 53.5315
rfemur -11.9681 14.9114 3.50478
rtibia 34.9162
rfoot -26.2912 -12.0855
rtoes 11.4061
lfemur -6.56912 8.03668 -26.635
ltibia 25.9778
lfoot -15.6754 -4.83013
ltoes -3.81661
1490
root 43.6909 16.4651 -6.14773 -737.921 -77.6396 -341.209
lowerback -0.584749 1.11395 -2.33861
upperback 4.97071 1.48772 0.353874
thorax 5.40011 0.595553 1.75065
lowerneck -9.56386 4.20743 3.78207
upperneck 4.5211 4.59086 6.41699
head 3.08502 2.56642 1.69984
rclavicle -1.98785e-014 0
rhumerus -18.8726 28.688 -92.3804
rradius 71.7111
rwrist -52.2396
rhand 1.10621 -361.092
rfingers 7.12502
rthumb 26.6495 330.764
lclavicle -1.98785e-014 0
lhumerus -22.6577 -23.5449 96.051
lradius 74.9032
lwrist 62.2885
lhand 6.0251 26.2032
lfingers 7.12502
lthumb 31.3472 53.5379
rfemur -11.9717 14.9125 3.45738
rtibia 34.8863
rfoot -26.302 -12.1474
rtoes 11.3985
lfemur -6.62279 8.05971 -26.689
ltibia 26.0098
lfoot -15.6746 -4.87114
ltoes -3.77968
1491
root 43.6978 16.4643 -6.13541 -737.87 -77.622 -341.244
lowerback -0.59744 1.11261 -2.35197
upperback 4.97645 1.48717 0.344045
thorax 5.41342 0.594634 1.74828
lowerneck -9.55228 4.19283 3.77458
upperneck 4.47952 4.57289 6.44907
head 3.0679 2.55683 1.70918
rclavicle -4.37326e-015 -1.59028e-015
rhumerus -18.8951 28.656 -92.3814
rradius 71.7266
rwrist -52.2443
rhand 1.05861 -361.064
rfingers 7.12502
rthumb 26.6039 330.785
lclavicle -4.37326e-015 -1.59028e-015
lhumerus -22.6171 -23.5925 96.0271
lradius 74.8901
lwrist 62.1913
lhand 6.0224 26.2104
lfingers 7.12502
lthumb 31.3447 53.5456
rfemur -11.9812 14.9235 3.41322
rtibia 34.8574
rfoot -26.3164 -12.2121
rtoes 11.3946
lfemur -6.67912 8.08083 -26.7398
ltibia 26.0401
lfoot -15.672 -4.90718
ltoes -3.74793
1492
root 43.7045 16.4636 -6.12372 -737.831 -77.6081 -341.266
lowerback -0.611736 1.11185 -2.36918
upperback 4.9821 1.4876 0.334107
thorax 5.42743 0.594021 1.74803
lowerneck -9.5481 4.17684 3.7625
upperneck 4.44516 4.55243 6.48524
head 3.05458 2.54641 1.72098
rclavicle 1.45113e-014 7.95139e-016
rhumerus -18.9171 28.6255 -92.3815
rradius 71.7412
rwrist -52.2655
rhand 1.02487 -361.034
rfingers 7.12502
rthumb 26.5717 330.81
lclavicle 1.45113e-014 7.95139e-016
lhumerus -22.5737 -23.6361 96.0015
lradius 74.8822
lwrist 62.0961
lhand 6.02519 26.2237
lfingers 7.12502
lthumb 31.3473 53.5584
rfemur -11.9937 14.9467 3.37029
rtibia 34.8294
rfoot -26.3339 -12.2846
rtoes 11.3841
lfemur -6.73538 8.10043 -26.7901
ltibia 26.0684
lfoot -15.6686 -4.93768
ltoes -3.7213
1493
root 43.7107 16.4628 -6.11235 -737.8 -77.5946 -341.277
lowerback -0.632027 1.11035 -2.38566
upperback 4.9867 1.48735 0.32137
thorax 5.44389 0.593173 1.74457
lowerneck -9.54247 4.15887 3.75014
upperneck 4.4098 4.52945 6.52249
head 3.04067 2.53472 1.73298
rclavicle -1.16289e-014 3.18055e-015
rhumerus -18.9397 28.5969 -92.3847
rradius 71.7527
rwrist -52.292
rhand 0.998939 -360.996
rfingers 7.12502
rthumb 26.5468 330.844
lclavicle -1.16289e-014 3.18055e-015
lhumerus -22.5329 -23.674 95.9738
lradius 74.8814
lwrist 62.0039
lhand 6.02588 26.2296
lfingers 7.12502
lthumb 31.348 53.5642
rfemur -12.0071 14.973 3.326
rtibia 34.8014
rfoot -26.3554 -12.3567
rtoes 11.3801
lfemur -6.79102 8.11824 -26.8416
ltibia 26.0944
lfoot -15.6669 -4.96802
ltoes -3.69351
1494
root 43.7166 16.4621 -6.10135 -737.764 -77.5826 -341.291
lowerback -0.658232 1.10727 -2.39818
upperback 4.99108 1.48509 0.307867
thorax 5.4637 0.591483 1.73811
lowerneck -9.53345 4.14223 3.73554
upperneck 4.37006 4.50912 6.55937
head 3.02453 2.52408 1.74516
rclavicle 5.96354e-016 -1.11319e-014
rhumerus -18.9598 28.5765 -92.3884
rradius 71.7619
rwrist -52.3166
rhand 0.98402 -360.956
rfingers 7.12502
rthumb 26.5326 330.882
lclavicle 5.96354e-016 -1.11319e-014
lhumerus -22.4913 -23.7034 95.9446
lradius 74.886
lwrist 61.9225
lhand 6.0227 26.2547
lfingers 7.12502
lthumb 31.345 53.5898
rfemur -12.0215 15.004 3.28511
rtibia 34.7729
rfoot -26.3793 -12.4341
rtoes 11.3741
lfemur -6.84662 8.13497 -26.8904
ltibia 26.1185
lfoot -15.6656 -4.99496
ltoes -3.67353
1495
root 43.7221 16.4615 -6.0907 -737.727 -77.5712 -341.304
lowerback -0.688297 1.10367 -2.40745
upperback 4.99392 1.48227 0.292599
thorax 5.48424 0.589738 1.72805
lowerneck -9.52119 4.12422 3.72367
upperneck 4.33155 4.48706 6.5926
head 3.00838 2.51249 1.7555
rclavicle -1.42131e-014 -3.97569e-016
rhumerus -18.9819 28.5577 -92.3954
rradius 71.7691
rwrist -52.3291
rhand 0.973493 -360.908
rfingers 7.12502
rthumb 26.5225 330.928
lclavicle -1.42131e-014 -3.97569e-016
lhumerus -22.4515 -23.7278 95.9162
lradius 74.8941
lwrist 61.855
lhand 6.00397 26.2963
lfingers 7.12502
lthumb 31.3271 53.6349
rfemur -12.0361 15.0368 3.24597
rtibia 34.7436
rfoot -26.407 -12.5138
rtoes 11.371
lfemur -6.90177 8.15119 -26.9379
ltibia 26.141
lfoot -15.6663 -5.02235
ltoes -3.6458
1496
root 43.7274 16.4609 -6.0804 -737.681 -77.563 -341.326
lowerback -0.720353 1.09932 -2.41094
upperback 4.996 1.47834 0.277021
thorax 5.50531 0.58772 1.71439
lowerneck -9.50741 4.10713 3.71341
upperneck 4.29299 4.46641 6.62246
head 2.99203 2.50148 1.76448
rclavicle 1.80894e-014 3.97569e-016
rhumerus -19.0025 28.5473 -92.4036
rradius 71.7742
rwrist -52.325
rhand 0.973805 -360.866
rfingers 7.12502
rthumb 26.5228 330.971
lclavicle 1.80894e-014 3.97569e-016
lhumerus -22.4143 -23.7452 95.8881
lradius 74.9067
lwrist 61.8025
lhand 5.97412 26.3636
lfingers 7.12502
lthumb 31.2987 53.7077
rfemur -12.0514 15.0706 3.21192
rtibia 34.7135
rfoot -26.4374 -12.5961
rtoes 11.3706
lfemur -6.95701 8.16947 -26.9809
ltibia 26.1626
lfoot -15.6676 -5.04827
ltoes -3.62405
1497
root 43.7326 16.4605 -6.07057 -737.628 -77.56 -341.352
lowerback -0.752652 1.09643 -2.41043
upperback 4.99686 1.47626 0.260856
thorax 5.52523 0.586868 1.69798
lowerneck -9.50011 4.08993 3.70577
upperneck 4.26936 4.44368 6.65504
head 2.98214 2.49017 1.77445
rclavicle -2.5842e-015 7.55382e-015
rhumerus -19.0208 28.5395 -92.4133
rradius 71.7761
rwrist -52.299
rhand 0.978614 -360.827
rfingers 7.12502
rthumb 26.5274 331.011
lclavicle -2.5842e-015 7.55382e-015
lhumerus -22.3772 -23.764 95.8607
lradius 74.9189
lwrist 61.7631
lhand 5.93209 26.4248
lfingers 7.12502
lthumb 31.2586 53.7766
rfemur -12.0692 15.1056 3.18261
rtibia 34.683
rfoot -26.4649 -12.6845
rtoes 11.3531
lfemur -7.01296 8.1924 -27.0189
ltibia 26.1837
lfoot -15.6697 -5.07562
ltoes -3.59282
1498
root 43.7377 16.4601 -6.06111 -737.574 -77.5615 -341.38
lowerback -0.785724 1.09353 -2.40927
upperback 4.99634 1.47412 0.246354
thorax 5.54413 0.586014 1.68292
lowerneck -9.49955 4.07431 3.69411
upperneck 4.25673 4.42228 6.69008
head 2.97718 2.48001 1.78654
rclavicle 1.66979e-014 -9.14409e-015
rhumerus -19.0362 28.5413 -92.4203
rradius 71.7755
rwrist -52.2527
rhand 0.984048 -360.795
rfingers 7.12502
rthumb 26.5326 331.043
lclavicle 1.66979e-014 -9.14409e-015
lhumerus -22.3414 -23.7798 95.8363
lradius 74.9307
lwrist 61.7276
lhand 5.88329 26.4728
lfingers 7.12502
lthumb 31.2121 53.8336
rfemur -12.0916 15.1363 3.15489
rtibia 34.6521
rfoot -26.4859 -12.7759
rtoes 11.3134
lfemur -7.07088 8.2169 -27.0546
ltibia 26.205
lfoot -15.6734 -5.10096
ltoes -3.55853
1499
root 43.7427 16.4599 -6.05199 -737.506 -77.5666 -341.42
lowerback -0.813989 1.09129 -2.40264
upperback 4.99255 1.47252 0.23222
thorax 5.55689 0.585825 1.66505
lowerneck -9.50614 4.0602 3.6791
upperneck 4.25801 4.40154 6.73077
head 2.97821 2.47091 1.80177
rclavicle 2.88238e-015 -6.36111e-015
rhumerus -19.0533 28.5452 -92.4288
rradius 71.7723
rwrist -52.1889
rhand 0.98054 -360.764
rfingers 7.12502
rthumb 26.5292 331.073
lclavicle 2.88238e-015 -6.36111e-015
lhumerus -22.3115 -23.7992 95.8162
lradius 74.9401
lwrist 61.6904
lhand 5.82591 26.5152
lfingers 7.12502
lthumb 31.1574 53.8865
rfemur -12.1155 15.1608 3.13197
rtibia 34.6212
rfoot -26.499 -12.8671
rtoes 11.2544
lfemur -7.12798 8.24219 -27.0849
ltibia 26.2258
lfoot -15.678 -5.12418
ltoes -3.5321
1500
root 43.7478 16.4599 -6.04327 -737.412 -77.5777 -341.483
lowerback -0.837511 1.09128 -2.38917
upperback 4.9828 1.47351 0.219467
thorax 5.56063 0.587446 1.64475
lowerneck -9.51232 4.04415 3.66593
upperneck 4.26676 4.3774 6.77293
head 2.98185 2.46045 1.81719
rclavicle -5.36719e-015 1.15295e-014
rhumerus -19.075 28.5485 -92.4392
rradius 71.7657
rwrist -52.1206
rhand 0.965296 -360.738
rfingers 7.12502
rthumb 26.5146 331.097
lclavicle -5.36719e-015 1.15295e-014
lhumerus -22.2906 -23.826 95.8026
lradius 74.9466
lwrist 61.6447
lhand 5.77057 26.5571
lfingers 7.12502
lthumb 31.1047 53.9386
rfemur -12.1463 15.1804 3.11539
rtibia 34.5909
rfoot -26.4996 -12.9604
rtoes 11.1688
lfemur -7.18801 8.26668 -27.1077
ltibia 26.2451
lfoot -15.6812 -5.14037
ltoes -3.51457
